<?xml version="1.0" encoding="utf-8"?>
<!-- Generator: Adobe Illustrator 17.0.0, SVG Export Plug-In . SVG Version: 6.00 Build 0)  -->
<!DOCTYPE svg PUBLIC "-//W3C//DTD SVG 1.1//EN" "http://www.w3.org/Graphics/SVG/1.1/DTD/svg11.dtd">
<svg version="1.1" id="Layer_1" xmlns="http://www.w3.org/2000/svg" xmlns:xlink="http://www.w3.org/1999/xlink" x="0px" y="0px"
	 width="235.052px" height="258.102px" viewBox="0 0 235.052 258.102" enable-background="new 0 0 235.052 258.102"
	 xml:space="preserve">
<g>
	<g>
		<path fill="#1C6B9B" d="M217.91,0.076c-16.254-1.447-27.458,18.052-34.547,34.603c-7.089,16.551-3.733,40.961-3.733,40.961
			c-17.247,14.489-28.088,31.561-34.212,43.514c6.905,3.673,11.7,7.518,11.7,10.555c0,4.384,1.986,8.656,5.114,12.756
			c1.826,2.396,4.064,4.736,6.509,7.013c14.07-20.355,38.783-56.148,46.101-67.007c10.429-15.468,18.723-59.693,19.91-64.725
			C235.951,12.719,234.156,1.527,217.91,0.076z"/>
		<path fill="#666666" d="M162.233,142.465c-3.129-4.1-5.114-8.372-5.114-12.756c0-3.037-4.796-6.882-11.7-10.555
			c-9.099-4.84-21.864-9.382-32.18-11.381c-18.154-3.524-50.921-8.132-50.921,6.232c0,14.355,35.208,14.896,52.004,16.994
			c16.787,2.097,20.853,7.925,20.853,13.882c0,5.415-0.67,12.618-11.363,20.595h-0.009c-1.066,0.799-2.243,1.607-3.524,2.424
			c-14.088,8.939-37.924,2.175-60.402,8.673c-22.486,6.498-15.713,20.045-9.481,26.81c2.132,2.312,4.487,4.375,6.653,6.094h0.009
			c4.177,3.292,7.693,5.286,7.693,5.286h7.581v43.339h76.389v-43.881c17.062-5.69,20.312-14.63,20.312-14.63v-21.97v-27.867
			c-0.099-0.091-0.191-0.184-0.29-0.276C166.297,147.201,164.059,144.862,162.233,142.465z"/>
		<path fill="#1C6B9B" d="M50.395,203.383c-6.232-6.765-13.005-20.312,9.481-26.81c22.478-6.498,46.313,0.266,60.402-8.673
			c1.281-0.817,2.458-1.625,3.524-2.424c-13.693-6.825-103.345-4.96-112.844-4.96c-7.693,0-11.398,6.98-10.916,14.071
			c0.112,1.668,0.464,3.344,1.04,4.934c0.524,1.453,1.556,3.301,2.897,5.364c6.404,9.842,19.899,24.592,19.899,24.592h33.171
			C54.882,207.758,52.527,205.695,50.395,203.383z"/>
	</g>
	<g>
		<g>
			<path fill="#D1D1D1" d="M45.881,71.772c-14.876,20.232-24.796,43.843-28.661,68.87c-0.109,0.704,0.374,1.362,1.077,1.471
				c0.067,0.01,0.133,0.015,0.199,0.015c0.625,0,1.174-0.455,1.273-1.093c3.899-25.248,14.067-49.029,29.332-69.264h-3.22V71.772z"
				/>
			<path fill="#D1D1D1" d="M172.54,7.654c-27.687,0-54.694,7.315-78.378,20.94h5.298c22.311-11.967,47.4-18.361,73.08-18.361
				c0.712,0,1.289-0.577,1.289-1.289C173.83,8.231,173.252,7.654,172.54,7.654z"/>
		</g>
		<g>
			<path d="M45.797,43.456h-0.069l-4.097,2.066l-0.723-3.202l5.439-2.685h3.547v22.379h-4.097V43.456z"/>
			<path d="M55.885,62.014v-2.582l2.651-2.445c5.268-4.889,7.747-7.574,7.781-10.535c0-1.997-1.068-3.753-3.994-3.753
				c-1.963,0-3.65,0.998-4.786,1.859l-1.24-2.995c1.618-1.308,4.063-2.307,6.886-2.307c4.958,0,7.368,3.133,7.368,6.783
				c0,3.925-2.824,7.092-6.714,10.707l-1.963,1.687v0.069h9.192v3.512C71.066,62.014,55.885,62.014,55.885,62.014z"/>
			<path d="M88.42,50.686c0,7.195-2.823,11.706-8.16,11.706c-5.164,0-7.918-4.682-7.953-11.499c0-6.955,2.961-11.637,8.194-11.637
				C85.906,39.256,88.42,44.076,88.42,50.686z M76.576,50.893c-0.034,5.44,1.48,8.263,3.821,8.263c2.48,0,3.787-3.029,3.787-8.4
				c0-5.199-1.239-8.263-3.787-8.263C78.125,42.492,76.542,45.281,76.576,50.893z"/>
			<path d="M100.401,43.215c0,2.858-2.341,4.854-4.958,4.854c-2.892,0-4.889-2.135-4.889-4.717
				c-0.034-2.754,2.169-4.923,4.923-4.923C98.473,38.43,100.401,40.668,100.401,43.215z M92.895,43.318
				c0,1.515,1.102,2.72,2.582,2.72c1.481,0,2.582-1.205,2.582-2.789c0-1.308-0.826-2.789-2.582-2.789
				C93.859,40.461,92.895,41.872,92.895,43.318z"/>
		</g>
	</g>
</g>
</svg>
