<?xml version="1.0" encoding="utf-8"?>
<!-- Generator: Adobe Illustrator 17.0.0, SVG Export Plug-In . SVG Version: 6.00 Build 0)  -->
<!DOCTYPE svg PUBLIC "-//W3C//DTD SVG 1.1//EN" "http://www.w3.org/Graphics/SVG/1.1/DTD/svg11.dtd">
<svg version="1.1" id="Layer_1" xmlns="http://www.w3.org/2000/svg" xmlns:xlink="http://www.w3.org/1999/xlink" x="0px" y="0px"
	 width="350px" height="240px" viewBox="0 0 350 240" enable-background="new 0 0 350 240" xml:space="preserve">
<g>
	<g id="XMLID_1_">
		<path fill="#666666" d="M228.518,158.984v-26.263c-2.414-2.228-4.618-4.521-6.408-6.87c-2.949-3.864-4.82-7.891-4.82-12.022
			c0-6.635-24.254-17.361-41.355-20.674c-17.109-3.322-47.99-7.664-47.99,5.873c0,13.529,33.182,14.039,49.011,16.016
			c15.821,1.977,19.653,7.469,19.653,13.083c0,5.104-0.631,11.892-10.709,19.41h-0.008c-1.004,0.753-2.114,1.514-3.321,2.284
			c-13.277,8.425-35.741,2.05-56.925,8.174c-21.192,6.125-14.808,18.892-8.935,25.267c2.009,2.18,4.229,4.124,6.27,5.744h0.008
			c3.937,3.103,7.25,4.982,7.25,4.982h7.145v40.845h71.993v-41.355c16.08-5.363,19.142-13.788,19.142-13.788L228.518,158.984
			L228.518,158.984z"/>
		<path fill="#155074" d="M69.254,156.124c0,0-27.664,0.705-44.498,19.329C7.931,194.069,0.405,211.972,0.405,211.972
			s-1.79,6.092,2.155,8.952c3.937,2.868,12.168-6.084,17.182-10.742c5.014-4.65,48.443-37.864,53.223-44.353
			c-1.264-1.944-2.236-3.686-2.73-5.055C69.693,159.275,69.36,157.695,69.254,156.124z"/>
		<path fill="#1C6B9B" d="M79.544,142.863c-7.25,0-10.742,6.578-10.288,13.261c0.105,1.572,0.437,3.151,0.98,4.65
			c0.494,1.369,1.466,3.111,2.73,5.055c6.036,9.276,18.754,23.177,18.754,23.177h31.261c-2.041-1.621-4.261-3.565-6.27-5.744
			c-5.874-6.376-12.257-19.143,8.935-25.267c21.184-6.124,43.648,0.251,56.925-8.174c1.207-0.769,2.316-1.531,3.321-2.284
			C172.987,141.105,88.495,142.863,79.544,142.863z"/>
		<path fill="#1C6B9B" d="M296.899,55.493c-12.176,11.819-18.122,34.267-18.122,34.267c-35.377,11.066-56.666,36.09-56.666,36.09
			c1.79,2.35,3.994,4.642,6.408,6.87v26.263c0,0,63.722-40.829,78.401-50.493c14.687-9.664,37.961-45.114,40.821-49.059
			c2.867-3.937,5.371-14.322-8.231-21.483C325.901,30.786,309.075,43.674,296.899,55.493z"/>
	</g>
	<g>
		<g>
			<path fill="#D1D1D1" d="M56.881,139.074c0,0.828,0.672,1.5,1.5,1.5s1.5-0.672,1.5-1.5c0-36.637,15.386-69.748,40.034-93.213
				h-3.861v-0.424C71.883,69.332,56.881,102.482,56.881,139.074z"/>
			<path fill="#D1D1D1" d="M167.983,8.963v3.041c6.719-1.086,13.607-1.66,20.628-1.66c31.243,0,61.372,11.331,84.836,31.906
				c0.624,0.546,1.57,0.484,2.117-0.139c0.546-0.623,0.484-1.571-0.139-2.117c-24.011-21.054-54.842-32.65-86.813-32.65
				C181.595,7.344,174.707,7.901,167.983,8.963L167.983,8.963z"/>
		</g>
		<g>
			<path d="M106.36,19.18h-0.065l-3.859,1.946l-0.682-3.017l5.125-2.53h3.342v21.086h-3.86L106.36,19.18L106.36,19.18z"/>
			<path d="M124.66,36.665v-5.353h-9.537v-2.595l8.596-13.138h4.704v12.716h2.726v3.017h-2.726v5.353H124.66z M124.66,28.295v-5.742
				c0-1.2,0.032-2.433,0.129-3.666h-0.129c-0.648,1.33-1.201,2.401-1.85,3.568l-3.86,5.774l-0.032,0.065L124.66,28.295
				L124.66,28.295z"/>
			<path d="M146.527,25.992c0,6.78-2.66,11.03-7.688,11.03c-4.867,0-7.462-4.412-7.494-10.835c0-6.553,2.79-10.965,7.721-10.965
				C144.16,15.222,146.527,19.764,146.527,25.992z M135.368,26.187c-0.032,5.125,1.396,7.786,3.601,7.786
				c2.336,0,3.568-2.855,3.568-7.916c0-4.898-1.168-7.786-3.568-7.786C136.828,18.271,135.336,20.899,135.368,26.187z"/>
			<path d="M157.82,18.953c0,2.692-2.205,4.574-4.672,4.574c-2.725,0-4.605-2.011-4.605-4.444c-0.033-2.595,2.043-4.639,4.639-4.639
				C156.004,14.443,157.82,16.552,157.82,18.953z M150.748,19.05c0,1.428,1.039,2.563,2.434,2.563s2.434-1.135,2.434-2.627
				c0-1.233-0.779-2.628-2.434-2.628C151.656,16.357,150.748,17.688,150.748,19.05z"/>
		</g>
	</g>
</g>
</svg>
